name C:\Users\u0150099\Documents\master_thesis\3dpredictsim\Results\debug\Fal_s1_mtjc2_sc_cspx10_oy2_TrackAnkleQSubtQ_ATx70_MTc2_MTPm_k1_d01_MTJm_nl_MG_exp5_table_d01_PF_Natali2010_ls146_FDB2_lTs125_Fpsl10_ig21_wAk5e+04_wa2e+03_wpMnD1e+03.mot
datacolumns 130
datarows 4
range 1.61458974 1.64688154
endheader
time	pelvis_tilt	pelvis_list	pelvis_rotation	pelvis_tx	pelvis_ty	pelvis_tz	hip_flexion_l	hip_adduction_l	hip_rotation_l	hip_flexion_r	hip_adduction_r	hip_rotation_r	knee_angle_l	knee_angle_r	ankle_angle_l	ankle_angle_r	subtalar_angle_l	subtalar_angle_r	mtj_angle_l	mtj_angle_r	mtp_angle_l	mtp_angle_r	lumbar_extension	lumbar_bending	lumbar_rotation	arm_flex_l	arm_add_l	arm_rot_l	arm_flex_r	arm_add_r	arm_rot_r	elbow_flex_l	elbow_flex_r	pro_sup_l	pro_sup_r	glut_med1_l/activation	glut_med2_l/activation	glut_med3_l/activation	glut_min1_l/activation	glut_min2_l/activation	glut_min3_l/activation	semimem_l/activation	semiten_l/activation	bifemlh_l/activation	bifemsh_l/activation	sar_l/activation	add_long_l/activation	add_brev_l/activation	add_mag1_l/activation	add_mag2_l/activation	add_mag3_l/activation	tfl_l/activation	pect_l/activation	grac_l/activation	glut_max1_l/activation	glut_max2_l/activation	glut_max3_l/activation	iliacus_l/activation	psoas_l/activation	quad_fem_l/activation	gem_l/activation	peri_l/activation	rect_fem_l/activation	vas_med_l/activation	vas_int_l/activation	vas_lat_l/activation	med_gas_l/activation	lat_gas_l/activation	soleus_l/activation	tib_post_l/activation	flex_dig_l/activation	flex_hal_l/activation	tib_ant_l/activation	per_brev_l/activation	per_long_l/activation	per_tert_l/activation	ext_dig_l/activation	ext_hal_l/activation	FDB_l/activation	ercspn_l/activation	intobl_l/activation	extobl_l/activation	glut_med1_r/activation	glut_med2_r/activation	glut_med3_r/activation	glut_min1_r/activation	glut_min2_r/activation	glut_min3_r/activation	semimem_r/activation	semiten_r/activation	bifemlh_r/activation	bifemsh_r/activation	sar_r/activation	add_long_r/activation	add_brev_r/activation	add_mag1_r/activation	add_mag2_r/activation	add_mag3_r/activation	tfl_r/activation	pect_r/activation	grac_r/activation	glut_max1_r/activation	glut_max2_r/activation	glut_max3_r/activation	iliacus_r/activation	psoas_r/activation	quad_fem_r/activation	gem_r/activation	peri_r/activation	rect_fem_r/activation	vas_med_r/activation	vas_int_r/activation	vas_lat_r/activation	med_gas_r/activation	lat_gas_r/activation	soleus_r/activation	tib_post_r/activation	flex_dig_r/activation	flex_hal_r/activation	tib_ant_r/activation	per_brev_r/activation	per_long_r/activation	per_tert_r/activation	ext_dig_r/activation	ext_hal_r/activation	FDB_r/activation	ercspn_r/activation	intobl_r/activation	extobl_r/activation	
          1.61458974	         -2.92032594	          0.90759372	         -4.21229860	          2.14740436	          0.91139312	          0.00611020	         25.88640894	          2.14471571	         -3.44246499	        -16.90413755	          2.05547085	          7.74736906	         -4.29233441	         -9.88399252	          1.78051676	          4.53820046	          0.02550021	          5.34609373	          1.19532028	         -1.06699939	          0.39461106	         17.32495167	         -3.73679137	         -0.11449209	          1.12659028	         -4.44750210	        -13.47199123	          6.84525550	          0.45027522	        -15.41221365	         19.38721290	         24.75442596	         51.30969411	         86.51662706	         86.51662706	          0.06369582	          0.05001035	          0.05002615	          0.05000598	          0.05000748	          0.05000768	          0.24788947	          0.06956166	          0.36629684	          0.05001479	          0.05000701	          0.15118374	          0.12716744	          0.14976093	          0.18746265	          0.12863598	          0.05000374	          0.05005143	          0.18082445	          0.05896504	          0.05896969	          0.10726218	          0.05000169	          0.05000207	          0.12245806	          0.05001542	          0.05000333	          0.05000131	          0.05003660	          0.05003609	          0.05002763	          0.09901775	          0.08229187	          0.05000041	          0.05342353	          0.07581145	          0.05890596	          0.22601904	          0.05744096	          0.07134924	          0.24552289	          0.59366589	          0.27124121	          0.05012577	          0.05000214	          0.10193678	          0.09674524	          0.28346929	          0.09674610	          0.05897208	          0.46547959	          0.26424805	          0.12513003	          0.05001379	          0.05000191	          0.05000164	          0.06955386	          0.11410987	          0.05000109	          0.05000129	          0.05000234	          0.05000764	          0.05000405	          0.74947752	          0.05000655	          0.05000528	          0.05006302	          0.05002345	          0.05000973	          0.35161239	          0.82500942	          0.05000242	          0.05001539	          0.05896713	          0.40535340	          0.09205322	          0.09915940	          0.07577127	          0.42212936	          0.50375009	          0.30158912	          0.53484291	          0.56335936	          0.58033678	          0.05000020	          0.05000286	          0.36774789	          0.05000070	          0.05000046	          0.11412043	          0.70520576	          0.05000033	          0.05000028	          0.05000082	
          1.62535368	         -2.92606869	          1.07620862	         -4.48223955	          2.16426982	          0.91060855	          0.00585443	         25.41748459	          2.65770017	         -3.37678759	        -17.12764443	          1.65752607	          7.73335924	         -4.20823818	        -11.09677638	          1.38526965	          3.56791734	         -0.12896337	          5.59947531	          1.60514970	         -2.16126220	         -0.56560410	         20.31981653	         -3.58041575	         -0.34319108	          1.21208847	         -5.27401504	        -13.45390848	          6.15769889	         -0.03855746	        -15.38566271	         19.31153297	         24.39490888	         53.22666025	         86.51662706	         86.51662706	          0.05897003	          0.05896976	          0.05000110	          0.05897008	          0.05896994	          0.05896877	          0.21185740	          0.05898135	          0.32168626	          0.05897018	          0.05000198	          0.17987771	          0.18249236	          0.12698724	          0.17425327	          0.12913082	          0.05000706	          0.05241744	          0.18215596	          0.05000330	          0.05000187	          0.09577334	          0.05000949	          0.05000195	          0.35076132	          0.05000651	          0.05000846	          0.05000028	          0.05000178	          0.05000170	          0.05000175	          0.09674091	          0.09645850	          0.05001237	          0.05000145	          0.06428849	          0.05000959	          0.24098882	          0.05000100	          0.10586041	          0.29113859	          0.62920465	          0.30275707	          0.08403003	          0.05000096	          0.08643122	          0.08202953	          0.24035129	          0.08203022	          0.05000205	          0.39467672	          0.22405373	          0.10609678	          0.05001403	          0.05000204	          0.05000153	          0.05897433	          0.09675355	          0.05000159	          0.05000125	          0.05000199	          0.05000629	          0.05000522	          0.72959786	          0.05000908	          0.05000265	          0.05001295	          0.05000652	          0.05000452	          0.29812880	          0.75071889	          0.05000044	          0.05000153	          0.05000065	          0.34369588	          0.11367826	          0.11439662	          0.09697428	          0.37773647	          0.46959002	          0.26695185	          0.47100002	          0.59447751	          0.49206412	          0.05000009	          0.06537879	          0.31181032	          0.05000074	          0.05000033	          0.09676158	          0.59793668	          0.05000013	          0.05000029	          0.09651603	
          1.63611761	         -2.92869409	          1.25936985	         -4.72507478	          2.18140410	          0.90990807	          0.00554932	         24.99645870	          3.14208273	         -3.31933473	        -17.26647330	          1.24445360	          7.68726358	         -4.84136017	        -12.40861113	          0.61925039	          2.38333653	         -0.34062498	          5.83414923	          1.96456697	         -3.37659215	         -1.43500281	         23.56152902	         -3.41263688	         -0.58582025	          1.29444801	         -6.06770838	        -13.45159529	          5.76119848	         -0.57601446	        -15.32065660	         19.14577617	         23.93656905	         55.02857329	         86.51662706	         86.51662706	          0.05000016	          0.05000038	          0.17809885	          0.05000040	          0.05000042	          0.05000058	          0.17963181	          0.05000986	          0.27275457	          0.05000065	          0.08201836	          0.22355965	          0.36121950	          0.43355972	          0.23528734	          0.10949121	          0.05000128	          0.11255565	          0.15445084	          0.05896955	          0.05897178	          0.18195908	          0.05000193	          0.06955799	          0.62200706	          0.26030259	          0.12900634	          0.08202688	          0.13043559	          0.13924164	          0.09196395	          0.08202588	          0.08178855	          0.06954958	          0.05000095	          0.06954878	          0.06954862	          0.29075715	          0.08377387	          0.08975839	          0.52079474	          0.64829566	          0.35162769	          0.07466939	          0.05000004	          0.07328417	          0.06955209	          0.20379163	          0.06955283	          0.05897625	          0.33464285	          0.18997326	          0.08995879	          0.05003279	          0.05000345	          0.05000478	          0.05000423	          0.08203702	          0.17611937	          0.11666244	          0.05899599	          0.05896490	          0.05897315	          0.73425148	          0.05001653	          0.05001130	          0.05005760	          0.05013304	          0.05896961	          0.25278048	          0.64354724	          0.06214473	          0.05899437	          0.05897117	          0.29141677	          0.15870054	          0.15870178	          0.14903903	          0.32027978	          0.41044557	          0.22634580	          0.39935627	          0.54540341	          0.41721660	          0.05000008	          0.05543439	          0.26438089	          0.05000025	          0.05000023	          0.08204318	          0.50698432	          0.05688168	          0.07365249	          0.08183560	
          1.64688154	         -2.92882225	          1.48601033	         -4.94319776	          2.19875918	          0.90931507	          0.00526393	         24.54239351	          3.52323591	         -3.17453618	        -17.31518844	          0.79863498	          7.58988067	         -5.82539215	        -13.81243352	         -0.32657616	          0.99953497	         -0.56177772	          5.99446131	          2.11007412	         -4.73770582	         -2.18649052	         26.96678495	         -3.23219707	         -0.87730766	          1.36884108	         -6.81470023	        -13.47892932	          5.65413274	         -1.14950784	        -15.20646651	         18.92082295	         23.35461402	         56.70338944	         86.51662706	         86.51662706	          0.37458936	          0.33439023	          0.37921536	          0.36874043	          0.08643111	          0.26658870	          0.17797779	          0.15319924	          0.24491776	          0.09134235	          0.06954616	          0.18955428	          0.30627479	          0.36761139	          0.19949899	          0.20845551	          0.05000356	          0.09543837	          0.17752839	          0.05000077	          0.05000179	          0.15428261	          0.05897215	          0.05897786	          0.52739351	          0.22070839	          0.11992683	          0.06954977	          0.11059525	          0.11806180	          0.07797554	          0.06954891	          0.06934771	          0.05897038	          0.05896867	          0.05897020	          0.05897032	          0.36044253	          0.07103129	          0.10564411	          0.48869516	          0.79523424	          0.62251149	          0.39470262	          0.05154339	          0.09674217	          0.05897259	          0.18718394	          0.05897333	          0.05000580	          0.28374159	          0.16107686	          0.07627542	          0.05000813	          0.05000277	          0.05000258	          0.05001083	          0.06955929	          0.16364377	          0.09892132	          0.05002487	          0.05000900	          0.05000536	          0.73536025	          0.06954840	          0.05224976	          0.05002481	          0.05001173	          0.05000927	          0.21433016	          0.65957997	          0.05269377	          0.05002221	          0.05000137	          0.24708934	          0.13456096	          0.13456197	          0.12636899	          0.27156212	          0.37669998	          0.19191629	          0.33861012	          0.46244291	          0.35375388	          0.08490316	          0.16631635	          0.22416605	          0.39694938	          0.05000040	          0.06956360	          0.42986675	          0.08230341	          0.06244920	          0.06938764	
